<?xml version="1.0" encoding="UTF-8" standalone="no"?>
<!-- Created with Inkscape (http://www.inkscape.org/) -->

<svg
   version="1.1"
   id="svg2"
   width="800"
   height="800"
   viewBox="0 0 800 800"
   sodipodi:docname="basic-vector-shapes-6-pdv.svg"
   inkscape:version="1.2 (dc2aedaf03, 2022-05-15)"
   xmlns:inkscape="http://www.inkscape.org/namespaces/inkscape"
   xmlns:sodipodi="http://sodipodi.sourceforge.net/DTD/sodipodi-0.dtd"
   xmlns="http://www.w3.org/2000/svg"
   xmlns:svg="http://www.w3.org/2000/svg">
  <defs
     id="defs6">
    <clipPath
       clipPathUnits="userSpaceOnUse"
       id="clipPath46">
      <path
         d="M 0,600 H 600 V 0 H 0 Z"
         id="path44" />
    </clipPath>
  </defs>
  <sodipodi:namedview
     id="namedview4"
     pagecolor="#ffffff"
     bordercolor="#000000"
     borderopacity="0.25"
     inkscape:showpageshadow="2"
     inkscape:pageopacity="0.0"
     inkscape:pagecheckerboard="0"
     inkscape:deskcolor="#d1d1d1"
     showgrid="false"
     inkscape:zoom="1.04625"
     inkscape:cx="400"
     inkscape:cy="400.4779"
     inkscape:window-width="1920"
     inkscape:window-height="1017"
     inkscape:window-x="-8"
     inkscape:window-y="-8"
     inkscape:window-maximized="1"
     inkscape:current-layer="g10">
    <inkscape:page
       x="0"
       y="0"
       id="page8"
       width="800"
       height="800" />
  </sodipodi:namedview>
  <g
     id="g10"
     inkscape:groupmode="layer"
     inkscape:label="Page 1"
     transform="matrix(1.3333333,0,0,-1.3333333,0,800)">
    <path
       d="M 59.181,498.04 H 40.76 v 78.948 h 18.421 z"
       style="fill:#231f20;fill-opacity:1;fill-rule:nonzero;stroke:none"
       id="path12" />
    <path
       d="M 86.374,498.04 H 67.953 v 78.948 h 18.421 z"
       style="fill:#231f20;fill-opacity:1;fill-rule:nonzero;stroke:none"
       id="path14" />
    <path
       d="M 103.041,514.707 H 24.093 v 18.42 h 78.948 z"
       style="fill:#231f20;fill-opacity:1;fill-rule:nonzero;stroke:none"
       id="path16" />
    <path
       d="M 103.041,541.9 H 24.093 v 18.42 h 78.948 z"
       style="fill:#231f20;fill-opacity:1;fill-rule:nonzero;stroke:none"
       id="path18" />
    <g
       id="g20"
       transform="translate(59.1812,353.6616)">
      <path
         d="M 0,0 -3.07,5.318 H -9.211 L -12.281,0 h -6.14 l 22.79,13.158 v 26.316 l -22.79,13.158 v 26.316 l 3.07,-5.318 h 6.14 l 3.07,5.318 H 0 L -22.791,65.79 V 39.474 L 0,26.316 Z"
         style="fill:#231f20;fill-opacity:1;fill-rule:nonzero;stroke:none"
         id="path22" />
    </g>
    <g
       id="g24"
       transform="translate(86.374,353.6616)">
      <path
         d="M 0,0 -3.07,5.318 H -9.21 L -12.281,0 h -6.14 l 22.79,13.158 v 26.316 l -22.79,13.158 v 26.316 l 3.07,-5.318 h 6.141 l 3.069,5.318 H 0 L -22.791,65.79 V 39.474 L 0,26.316 Z"
         style="fill:#231f20;fill-opacity:1;fill-rule:nonzero;stroke:none"
         id="path26" />
    </g>
    <g
       id="g28"
       transform="translate(103.041,388.749)">
      <path
         d="M 0,0 -5.317,-3.07 V -9.21 L 0,-12.28 v -6.14 L -13.158,4.371 H -39.474 L -52.632,-18.42 h -26.316 l 5.317,3.07 v 6.14 l -5.317,3.07 V 0 l 13.158,-22.79 h 26.316 L -26.316,0 Z"
         style="fill:#231f20;fill-opacity:1;fill-rule:nonzero;stroke:none"
         id="path30" />
    </g>
    <g
       id="g32"
       transform="translate(103.041,415.9424)">
      <path
         d="M 0,0 -5.317,-3.07 V -9.21 L 0,-12.28 v -6.14 L -13.158,4.371 H -39.474 L -52.632,-18.42 h -26.316 l 5.317,3.07 v 6.14 l -5.317,3.07 V 0 l 13.158,-22.79 h 26.316 L -26.316,0 Z"
         style="fill:#231f20;fill-opacity:1;fill-rule:nonzero;stroke:none"
         id="path34" />
    </g>
    <g
       id="g36"
       transform="translate(224.0586,388.8896)">
      <path
         d="m 0,0 h -12.458 l 1.839,4.246 -1.839,4.247 H 0 v 5.944 L 1.287,17.409 0,20.38 v 5.945 h -16.134 v 16.134 h -5.944 l -2.973,1.287 -2.972,-1.287 h -5.944 V 30.001 l -4.246,1.839 -4.245,-1.838 v 12.457 h -5.944 l -2.973,1.287 -2.972,-1.287 h -5.945 V 26.325 H -76.426 V 20.38 l -1.287,-2.971 1.287,-2.972 V 8.493 h 12.458 L -65.807,4.246 -63.968,0 h -12.458 v -5.944 l -1.287,-2.971 1.287,-2.973 v -5.943 h 16.134 v -16.136 h 5.945 l 2.972,-1.287 2.973,1.287 h 5.944 v 12.458 l 4.245,-1.838 4.246,1.839 v -12.459 h 5.944 l 2.972,-1.287 2.973,1.287 h 5.944 v 16.136 H 0 v 5.943 L 1.287,-8.915 0,-5.944 Z"
         style="fill:#231f20;fill-opacity:1;fill-rule:nonzero;stroke:none"
         id="path38" />
    </g>
    <g
       id="g40">
      <g
         id="g42"
         clip-path="url(#clipPath46)">
        <g
           id="g48"
           transform="translate(190.2314,533.1274)">
          <path
             d="m 0,0 c 0,-3.633 -1.963,-6.579 -4.386,-6.579 -2.422,0 -4.385,2.946 -4.385,6.579 -3.635,0 -6.581,1.964 -6.581,4.387 0,2.423 2.946,4.386 6.581,4.386 0,3.634 1.963,6.579 4.385,6.579 C -1.963,15.352 0,12.407 0,8.773 3.634,8.773 6.58,6.81 6.58,4.387 6.58,1.964 3.634,0 0,0 m 35.088,8.773 c -7.629,0 -13.815,4.124 -13.815,9.21 0,5.087 6.186,9.21 13.815,9.21 0,-6.903 -3.731,-12.5 -8.333,-12.5 -4.603,0 -8.334,5.597 -8.334,12.5 -6.903,0 -12.5,3.731 -12.5,8.334 0,4.602 5.597,8.333 12.5,8.333 0,-7.63 -4.123,-13.816 -9.21,-13.816 C 4.124,30.044 0,36.23 0,43.86 c 6.904,0 12.5,-3.731 12.5,-8.333 0,-4.603 -5.596,-8.334 -12.5,-8.334 0,-3.633 -1.963,-6.578 -4.386,-6.578 -2.422,0 -4.385,2.945 -4.385,6.578 -6.904,0 -12.5,3.731 -12.5,8.334 0,4.602 5.596,8.333 12.5,8.333 0,-7.63 -4.124,-13.816 -9.211,-13.816 -5.087,0 -9.211,6.186 -9.211,13.816 6.904,0 12.501,-3.731 12.501,-8.333 0,-4.603 -5.597,-8.334 -12.501,-8.334 0,-6.903 -3.731,-12.5 -8.333,-12.5 -4.603,0 -8.334,5.597 -8.334,12.5 7.63,0 13.815,-4.123 13.815,-9.21 0,-5.086 -6.185,-9.21 -13.815,-9.21 0,6.904 3.731,12.5 8.334,12.5 4.602,0 8.333,-5.596 8.333,-12.5 3.635,0 6.58,-1.963 6.58,-4.386 0,-2.423 -2.945,-4.387 -6.58,-4.387 0,-6.904 -3.731,-12.5 -8.333,-12.5 -4.603,0 -8.334,5.596 -8.334,12.5 7.63,0 13.815,-4.123 13.815,-9.21 0,-5.086 -6.185,-9.21 -13.815,-9.21 0,6.904 3.731,12.5 8.334,12.5 4.602,0 8.333,-5.596 8.333,-12.5 6.905,0 12.501,-3.731 12.501,-8.334 0,-4.602 -5.596,-8.334 -12.501,-8.334 0,7.631 4.124,13.816 9.211,13.816 5.087,0 9.211,-6.185 9.211,-13.816 -6.905,0 -12.501,3.731 -12.501,8.334 0,4.603 5.596,8.334 12.501,8.334 0,3.633 1.963,6.579 4.385,6.579 2.423,0 4.386,-2.946 4.386,-6.579 6.904,0 12.501,-3.731 12.501,-8.334 0,-4.602 -5.597,-8.334 -12.501,-8.334 0,7.631 4.124,13.816 9.211,13.816 5.087,0 9.21,-6.185 9.21,-13.816 -6.904,0 -12.5,3.731 -12.5,8.334 0,4.603 5.596,8.334 12.5,8.334 0,6.904 3.731,12.5 8.334,12.5 4.602,0 8.333,-5.596 8.333,-12.5 -7.629,0 -13.815,4.124 -13.815,9.21 0,5.087 6.186,9.21 13.815,9.21 0,-6.904 -3.731,-12.5 -8.333,-12.5 -4.603,0 -8.334,5.596 -8.334,12.5 -3.634,0 -6.58,1.964 -6.58,4.387 0,2.423 2.946,4.386 6.58,4.386 0,6.904 3.731,12.5 8.334,12.5 4.602,0 8.333,-5.596 8.333,-12.5"
             style="fill:#231f20;fill-opacity:1;fill-rule:nonzero;stroke:none"
             id="path50" />
        </g>
        <g
           id="g52"
           transform="translate(310.9854,533.1274)">
          <path
             d="M 0,0 -2.193,-3.798 H -6.578 L -8.771,0 -12.57,2.193 V 6.58 l 3.799,2.193 2.193,3.799 h 4.385 L 0,8.773 3.799,6.58 V 2.193 Z m 35.088,8.773 -7.977,4.605 v 9.21 l 7.977,4.605 -4.166,-7.216 h -8.334 l -4.166,7.216 -7.217,4.167 v 8.334 l 7.217,4.166 -4.606,-7.977 H 4.605 L 0,43.86 7.217,39.694 V 31.36 L 0,27.193 -2.193,23.395 h -4.385 l -2.193,3.798 -7.217,4.167 v 8.334 l 7.217,4.166 -4.606,-7.976 h -9.211 l -4.605,7.976 7.216,-4.166 V 31.36 l -7.216,-4.167 -4.167,-7.216 h -8.334 l -4.166,7.216 7.976,-4.605 v -9.21 l -7.976,-4.605 4.166,7.217 h 8.334 l 4.167,-7.217 3.798,-2.193 V 2.193 L -27.193,0 -31.36,-7.217 h -8.334 L -43.86,0 l 7.976,-4.605 v -9.21 l -7.976,-4.605 4.166,7.217 h 8.334 l 4.167,-7.217 7.217,-4.167 v -8.334 l -7.217,-4.167 4.605,7.977 h 9.211 l 4.606,-7.977 -7.218,4.167 v 8.334 l 7.218,4.167 2.193,3.798 h 4.385 L 0,-18.42 7.218,-22.587 v -8.334 L 0,-35.088 l 4.605,7.977 h 9.211 l 4.606,-7.977 -7.218,4.167 v 8.334 l 7.218,4.167 4.166,7.217 h 8.334 l 4.166,-7.217 -7.977,4.605 v 9.21 L 35.088,0 30.922,-7.217 H 22.588 L 18.422,0 14.623,2.193 V 6.58 l 3.799,2.193 4.166,7.217 h 8.334 z"
             style="fill:#231f20;fill-opacity:1;fill-rule:nonzero;stroke:none"
             id="path54" />
        </g>
        <g
           id="g56"
           transform="translate(465.9268,541.9009)">
          <path
             d="M 0,0 V 18.42 H -16.666 V 35.087 H -35.088 V 18.42 h 16.668 v -1.755 h 1.754 V 0 Z m -35.088,9.648 h -8.771 v 7.018 H -60.528 V 0 h 7.021 v -8.773 h -7.021 V -25.44 h 16.669 v 7.018 h 8.771 v -7.018 h 16.668 v 16.667 h -7.02 V 0 h 7.02 V 16.665 H -35.088 Z M -62.28,-8.773 h -16.668 v -18.42 h 16.668 v -16.668 h 18.421 v 16.668 h -16.669 v 1.753 h -1.752 z m 27.192,-18.42 v -16.668 h 18.422 v 16.668 H 0 v 18.42 H -16.666 V -25.44 h -1.754 v -1.753 z M -43.859,18.42 V 35.087 H -62.28 V 18.42 H -78.948 V 0 h 16.668 v 16.666 h 1.752 v 1.754 z"
             style="fill:#231f20;fill-opacity:1;fill-rule:nonzero;stroke:none"
             id="path58" />
        </g>
        <g
           id="g60"
           transform="translate(577.5937,541.4268)">
          <path
             d="M 0,0 H -5.477 L -8.215,-4.743 -10.953,0 h -5.477 v 5.477 l -4.742,2.738 4.742,2.738 v 5.477 h 5.477 l 2.738,4.742 2.738,-4.742 H 0 V 11.475 L 4.292,8.997 0,6.52 V 1.564 H -4.955 L -7.433,-2.727 -9.91,1.564 h -4.955 V 6.52 l -4.291,2.477 4.291,2.478 v 4.955 h -4.955 l -2.478,-4.292 -2.477,4.292 h -4.956 v 4.955 l -4.291,2.477 4.291,2.478 v 4.955 h 4.956 l 2.477,4.292 2.478,-4.292 h 4.955 v -5.477 l 4.743,-2.738 -4.743,-2.739 v -5.477 h -5.477 l -2.739,-4.743 -2.738,4.743 h -5.477 v 5.477 l -4.744,2.739 4.744,2.738 v 5.477 h 4.955 l 2.477,4.292 2.478,-4.292 h 4.955 V 26.34 l 4.292,-2.478 -4.292,-2.477 V 16.43 h -4.955 l -2.478,-4.292 -2.477,4.292 h -4.955 v -2.608 l 2.258,-1.304 -2.258,-1.304 V 8.606 h -2.608 l -1.304,-2.259 -1.304,2.259 h -2.608 v 2.608 l -2.259,1.304 2.259,1.304 v 2.608 h -4.955 l -2.478,-4.292 -2.477,4.292 h -4.955 v 4.955 l -4.292,2.477 4.292,2.478 v 4.955 h 4.955 l 2.477,4.292 2.478,-4.292 h 4.955 v -5.476 l 4.743,-2.739 -4.743,-2.738 v -5.477 h -5.477 l -2.738,-4.743 -2.738,4.743 h -5.477 v 5.477 l -4.743,2.738 4.743,2.739 v 5.476 h 4.955 l 2.478,4.292 2.477,-4.292 h 4.955 V 26.34 l 4.292,-2.478 -4.292,-2.477 V 16.43 h -4.955 l -2.477,-4.292 -2.478,4.292 H -55.55 V 11.474 L -51.259,8.996 -55.55,6.519 V 1.562 h -4.956 l -2.477,-4.291 -2.479,4.291 h -4.955 v 4.957 l -4.291,2.477 4.291,2.478 v 4.956 h 5.477 l 2.738,4.742 2.738,-4.742 h 5.477 v -5.477 l 4.742,-2.738 -4.742,-2.738 V 0 h -5.477 L -62.202,-4.743 -64.94,0 h -5.477 v 4.956 l -4.291,2.478 4.291,2.477 v 4.956 h 4.955 l 2.479,4.292 2.477,-4.292 h 4.956 V 9.911 L -51.259,7.434 -55.55,4.956 V 0 h 2.609 L -51.638,2.259 -50.334,0 h 2.609 v -2.608 l 2.259,-1.305 -2.259,-1.304 v -2.608 h -2.609 l -1.304,-2.259 -1.303,2.259 h -2.609 v -4.956 l 4.291,-2.478 -4.291,-2.477 v -4.956 h -4.956 l -2.477,-4.292 -2.479,4.292 h -4.955 v 4.956 l -4.291,2.477 4.291,2.478 v 4.956 h 5.477 l 2.738,4.742 2.738,-4.742 h 5.477 v -5.477 l 4.742,-2.738 -4.742,-2.738 v -5.477 h -5.477 l -2.738,-4.743 -2.738,4.743 h -5.477 v 4.956 l -4.291,2.478 4.291,2.477 v 4.956 h 4.955 l 2.479,4.292 2.477,-4.292 h 4.956 v -4.956 l 4.291,-2.477 -4.291,-2.478 v -4.956 h 4.955 l 2.478,4.292 2.478,-4.292 h 4.955 v -4.955 l 4.292,-2.478 -4.292,-2.478 v -4.956 h -4.955 l -2.478,-4.291 -2.478,4.291 h -4.955 v 5.477 l -4.743,2.739 4.743,2.738 v 5.477 h 5.477 l 2.738,4.743 2.738,-4.743 h 5.477 v -5.477 l 4.743,-2.738 -4.743,-2.739 v -5.477 h -4.955 l -2.479,-4.291 -2.477,4.291 h -4.955 v 4.956 l -4.292,2.478 4.292,2.478 v 4.955 h 4.955 l 2.477,4.292 2.479,-4.292 h 4.955 v 2.608 l -2.259,1.304 2.259,1.304 v 2.608 h 2.608 l 1.304,2.258 1.304,-2.258 h 2.608 v -2.608 l 2.258,-1.304 -2.258,-1.304 v -2.608 h 4.955 l 2.478,4.292 2.478,-4.292 h 4.955 v -4.955 l 4.292,-2.478 -4.292,-2.478 v -4.956 h -4.955 l -2.478,-4.291 -2.478,4.291 h -4.955 v 5.477 l -4.744,2.739 4.744,2.739 v 5.477 h 5.477 l 2.738,4.743 2.739,-4.743 h 5.477 v -5.477 l 4.743,-2.739 -4.743,-2.739 v -5.477 h -4.955 l -2.479,-4.291 -2.477,4.291 h -4.955 v 4.956 l -4.292,2.478 4.292,2.478 v 4.955 h 4.955 l 2.477,4.292 2.479,-4.292 h 4.955 v 4.955 l -4.291,2.478 4.291,2.477 v 4.955 h 4.955 l 2.477,4.291 2.478,-4.291 H 0 v -4.955 L 4.292,-16.822 0,-19.3 v -4.955 h -5.477 l -2.738,-4.743 -2.738,4.743 h -5.477 v 5.477 l -4.742,2.738 4.742,2.738 v 5.477 h 5.477 l 2.738,4.742 2.738,-4.742 H 0 V -12.78 L 4.292,-15.258 0,-17.735 v -4.955 h -4.955 l -2.478,-4.291 -2.477,4.291 h -4.955 v 4.955 l -4.291,2.477 4.291,2.478 v 4.955 h -2.609 l -1.303,-2.259 -1.305,2.259 h -2.608 v 2.608 l -2.259,1.304 2.259,1.305 V 0 h 2.608 L -18.777,2.259 -17.474,0 h 2.609 v 4.955 l -4.291,2.478 4.291,2.477 v 4.955 h 4.955 l 2.477,4.291 2.478,-4.291 H 0 L 0,9.91 4.292,7.433 0,4.955 Z"
             style="fill:#231f20;fill-opacity:1;fill-rule:nonzero;stroke:none"
             id="path62" />
        </g>
        <g
           id="g64"
           transform="translate(546.2979,533.6016)">
          <path
             d="M 0,0 V -2.608 L 2.258,-3.912 0,-5.216 v -2.608 h -2.608 l -1.304,-2.259 -1.304,2.259 h -2.608 v 2.608 l -2.259,1.304 2.259,1.304 V 0 h -2.609 L -11.736,-2.259 -13.041,0 h -2.608 v 2.608 l -2.259,1.305 2.259,1.304 v 2.608 h 2.608 l 1.305,2.259 1.303,-2.259 h 2.609 v 2.608 l -2.259,1.304 2.259,1.304 v 2.608 h 2.608 l 1.304,2.258 1.304,-2.258 H 0 L 0,13.041 2.258,11.737 0,10.433 V 7.825 H 2.608 L 3.912,10.084 5.216,7.825 H 7.825 V 5.217 L 10.084,3.913 7.825,2.608 V 0 H 5.216 L 3.912,-2.259 2.608,0 Z"
             style="fill:#231f20;fill-opacity:1;fill-rule:nonzero;stroke:none"
             id="path66" />
        </g>
        <g
           id="g68"
           transform="translate(318.9043,382.9204)">
          <path
             d="M 0,0 0.068,5.013 3.602,8.57 4.556,8.573 4.572,3.119 0.663,-0.683 Z m -10.828,-5.708 3.595,3.496 5.012,0.016 0.676,-0.672 -3.844,-3.869 -5.453,0.076 z m -8.573,-0.954 -3.803,3.909 0.682,0.664 5.014,-0.069 3.557,-3.533 0.004,-0.954 z m -9.857,9.961 0.075,5.453 0.953,-0.013 3.497,-3.594 0.016,-5.014 -0.672,-0.676 z m 4.649,17.133 -0.07,-5.013 -3.534,-3.557 -0.953,-0.004 -0.017,5.454 3.91,3.802 z m 10.827,5.708 -3.595,-3.496 -5.013,-0.016 -0.675,0.671 3.843,3.869 5.453,-0.076 z m 8.573,0.953 3.803,-3.909 -0.684,-0.664 -5.013,0.069 -3.556,3.534 -0.004,0.953 z M 4.647,17.132 4.572,11.68 3.619,11.693 0.123,15.286 0.107,20.3 0.778,20.977 Z M 16.466,-1.515 16.434,8.611 27.181,8.647 c 0,0 -0.002,0.527 -0.005,1.359 0.011,0.833 0.019,1.36 0.019,1.36 l -10.746,0.149 0.14,10.126 0.185,0.186 -0.179,0.18 0.003,0.254 -0.264,0.004 -7.184,7.138 7.575,7.623 c 0,0 -0.373,0.372 -0.965,0.959 -0.58,0.597 -0.947,0.975 -0.947,0.975 l -7.706,-7.493 -7.06,7.259 -0.001,0.263 -0.254,-10e-4 -0.178,0.183 -0.189,-0.184 -10.126,-0.032 -0.034,10.746 c 0,0 -0.528,-0.002 -1.362,-0.004 -0.832,0.011 -1.359,0.018 -1.359,0.018 l -0.149,-10.745 -10.125,0.14 -0.187,0.185 -0.18,-0.18 -0.255,0.004 -0.003,-0.264 -7.138,-7.184 -7.623,7.575 c 0,0 -0.372,-0.374 -0.959,-0.965 -0.596,-0.581 -0.975,-0.948 -0.975,-0.948 l 7.493,-7.704 -7.259,-7.061 -0.263,-0.001 10e-4,-0.255 -0.183,-0.177 0.184,-0.189 0.033,-10.126 -10.747,-0.035 c 0,0 10e-4,-0.528 0.004,-1.36 -0.011,-0.833 -0.019,-1.36 -0.019,-1.36 L -41.06,8.917 -41.2,-1.21 l -0.185,-0.186 0.18,-0.179 -0.003,-0.255 0.263,-0.004 7.184,-7.137 -7.575,-7.624 c 0,0 0.375,-0.372 0.965,-0.959 0.581,-0.596 0.948,-0.975 0.948,-0.975 l 7.704,7.494 7.062,-7.259 0.001,-0.264 0.254,0.001 0.177,-0.182 0.19,0.184 10.126,0.032 0.034,-10.747 c 0,0 0.528,0.002 1.361,0.005 0.832,-0.012 1.36,-0.02 1.36,-0.02 l 0.148,10.746 10.126,-0.14 0.187,-0.185 0.179,0.18 0.255,-0.003 0.003,0.263 7.137,7.184 7.625,-7.574 c 0,0 0.371,0.374 0.958,0.964 0.596,0.581 0.975,0.949 0.975,0.949 l -7.494,7.703 7.26,7.061 0.263,10e-4 v 0.254 l 0.181,0.178 z"
             style="fill:#231f20;fill-opacity:1;fill-rule:nonzero;stroke:none"
             id="path70" />
        </g>
        <g
           id="g72"
           transform="translate(429.8906,382.9678)">
          <path
             d="m 0,0 c 0,0 -0.965,-0.965 -2.183,-2.184 -1.439,0.949 -2.579,1.701 -2.579,1.701 l -3.434,-5.211 v 6.241 h -3.088 c -0.347,1.688 -0.621,3.025 -0.621,3.025 l -6.113,-1.255 4.413,4.412 c 0,0 -0.966,0.966 -2.184,2.184 0.948,1.439 1.699,2.579 1.699,2.579 l -5.209,3.434 h 6.24 v 3.089 c 1.688,0.346 3.025,0.621 3.025,0.621 l -1.255,6.112 4.413,-4.412 c 0,0 0.965,0.965 2.183,2.184 1.439,-0.949 2.579,-1.701 2.579,-1.701 L 1.32,26.03 V 19.789 H 4.408 C 4.755,18.101 5.03,16.764 5.03,16.764 l 6.113,1.254 -4.413,-4.412 c 0,0 0.965,-0.964 2.183,-2.183 C 7.966,9.984 7.214,8.844 7.214,8.844 L 12.423,5.41 H 6.184 V 2.322 C 4.495,1.975 3.158,1.7 3.158,1.7 L 4.413,-4.413 Z M 22.013,11.119 30.398,5.59 c 0,0 4.256,6.454 5.665,8.591 -1.81,1.809 -7.277,7.275 -7.277,7.275 l -7.103,-7.102 -6.071,6.071 -1.726,8.411 9.839,2.02 c 0,0 -1.554,7.574 -2.069,10.08 H 11.365 V 30.891 H 2.778 l -7.168,4.727 5.531,8.386 c 0,0 -6.455,4.255 -8.591,5.664 -1.809,-1.809 -7.277,-7.276 -7.277,-7.276 l 7.103,-7.103 -6.071,-6.072 -8.411,-1.726 -2.021,9.839 c 0,0 -7.573,-1.554 -10.079,-2.069 V 24.972 h 10.045 v -8.587 l -4.727,-7.168 -8.386,5.529 c 0,0 -4.256,-6.455 -5.664,-8.591 1.809,-1.809 7.276,-7.276 7.276,-7.276 l 7.103,7.103 6.071,-6.07 1.727,-8.413 -9.84,-2.02 c 0,0 1.555,-7.573 2.07,-10.079 h 10.29 v 10.045 h 8.587 l 7.168,-4.727 -5.53,-8.386 c 0,0 6.454,-4.255 8.59,-5.664 1.81,1.809 7.277,7.276 7.277,7.276 l -7.103,7.103 6.07,6.071 8.412,1.727 2.021,-9.84 c 0,0 7.573,1.555 10.079,2.07 v 10.29 H 17.285 v 8.586 z"
             style="fill:#231f20;fill-opacity:1;fill-rule:nonzero;stroke:none"
             id="path74" />
        </g>
        <g
           id="g76"
           transform="translate(559.3945,385.6938)">
          <path
             d="m 0,0 v -0.11 h -6.464 v -3.418 c -1.731,0.069 -3.415,0.135 -3.415,0.135 l -0.255,-6.46 c 0,0 -0.04,0.003 -0.109,0.004 v 10e-4 c -0.051,-0.05 -0.078,-0.078 -0.078,-0.078 l -4.571,4.571 c 0,0 -1.192,-1.191 -2.417,-2.416 -1.177,1.272 -2.319,2.509 -2.319,2.509 l -4.749,-4.387 c 0,0 -0.026,0.029 -0.074,0.081 h -0.111 v 6.464 h -3.417 c 0.068,1.732 0.135,3.415 0.135,3.415 l -6.46,0.255 c 0,0 0.001,0.039 0.004,0.11 -0.051,0.05 -0.078,0.078 -0.078,0.078 l 4.571,4.572 c 0,0 -1.191,1.191 -2.417,2.416 1.274,1.177 2.511,2.32 2.511,2.32 l -4.388,4.747 c 0,0 0.03,0.028 0.081,0.075 v 0.111 h 6.465 v 3.417 c 1.731,-0.068 3.414,-0.135 3.414,-0.135 l 0.256,6.46 c 0,0 0.038,-0.002 0.11,-0.004 0.05,0.049 0.078,0.078 0.078,0.078 l 4.571,-4.571 c 0,0 1.192,1.19 2.416,2.416 1.177,-1.273 2.319,-2.509 2.319,-2.509 l 4.749,4.386 c 0,0 0.027,-0.029 0.075,-0.081 h 0.111 v -6.464 h 3.416 c -0.067,-1.732 -0.135,-3.415 -0.135,-3.415 l 6.46,-0.255 c 0,0 -0.001,-0.04 -0.005,-0.11 0.051,-0.05 0.079,-0.079 0.079,-0.079 l -4.571,-4.57 c 0,0 1.192,-1.191 2.417,-2.417 C -3.068,5.966 -4.306,4.823 -4.306,4.823 L 0.082,0.075 C 0.082,0.075 0.053,0.048 0,0 m 0,-10.253 c -1.531,0.061 -2.995,0.119 -2.995,0.119 0,0 0.055,1.389 0.114,2.879 H 0 Z m -17.493,-6.845 c -1.041,1.127 -2.035,2.202 -2.035,2.202 0,0 1.022,0.943 2.117,1.956 1.054,-1.055 2.038,-2.038 2.038,-2.038 0,0 -1.035,-1.035 -2.12,-2.12 m -17.211,7.53 c 0.061,1.533 0.118,2.995 0.118,2.995 0,0 1.39,-0.055 2.88,-0.113 v -2.882 z m -2.688,17.412 c -1.054,-1.055 -2.038,-2.037 -2.038,-2.037 0,0 -1.034,1.034 -2.119,2.119 1.126,1.041 2.201,2.035 2.201,2.035 0,0 0.944,-1.022 1.956,-2.117 m 3.372,17.293 c 1.533,-0.061 2.997,-0.118 2.997,-0.118 0,0 -0.056,-1.39 -0.115,-2.88 h -2.882 z m 17.495,6.846 c 1.041,-1.128 2.035,-2.203 2.035,-2.203 0,0 -1.023,-0.943 -2.117,-1.955 -1.055,1.054 -2.038,2.037 -2.038,2.037 0,0 1.035,1.035 2.12,2.121 M 0.686,24.452 C 0.624,22.919 0.567,21.457 0.567,21.457 c 0,0 -1.389,0.055 -2.88,0.113 v 2.882 z M 7.53,6.958 C 6.404,5.917 5.329,4.924 5.329,4.924 c 0,0 -0.943,1.021 -1.955,2.116 1.054,1.055 2.036,2.038 2.036,2.038 0,0 1.035,-1.034 2.12,-2.12 m 4.957,-9.78 -2.309,2.499 4.747,4.388 c 0,0 -1.323,1.431 -2.587,2.799 1.316,1.316 2.695,2.695 2.695,2.695 l -4.571,4.57 2.406,2.406 4.571,-4.57 5.052,5.051 c 0,0 -3.166,3.166 -4.228,4.228 0.058,1.501 0.235,5.975 0.235,5.975 l -7.138,0.281 -0.255,-6.459 -3.4,0.134 0.255,6.459 c 0,0 -1.948,0.078 -3.809,0.151 v 3.811 h -6.464 v 3.403 h 6.464 v 7.144 h -5.978 c -1.021,1.103 -4.059,4.391 -4.059,4.391 l -5.247,-4.848 4.387,-4.748 -2.498,-2.309 -4.387,4.747 c 0,0 -1.432,-1.323 -2.8,-2.586 -1.317,1.316 -2.695,2.694 -2.695,2.694 l -4.57,-4.57 -2.407,2.406 4.571,4.571 -5.051,5.051 c 0,0 -3.166,-3.165 -4.228,-4.228 -1.502,0.059 -5.975,0.236 -5.975,0.236 l -0.281,-7.138 6.459,-0.255 -0.134,-3.4 -6.46,0.255 c 0,0 -0.076,-1.948 -0.15,-3.809 h -3.811 v -6.464 h -3.403 v 6.464 h -7.144 v -5.979 c -1.103,-1.02 -4.391,-4.058 -4.391,-4.058 l 4.848,-5.247 4.747,4.388 2.31,-2.5 -4.747,-4.387 c 0,0 1.323,-1.431 2.587,-2.799 -1.317,-1.317 -2.696,-2.695 -2.696,-2.695 l 4.572,-4.572 -2.407,-2.405 -4.57,4.571 -5.052,-5.052 c 0,0 3.165,-3.165 4.228,-4.228 -0.059,-1.501 -0.236,-5.974 -0.236,-5.974 l 7.138,-0.282 0.255,6.459 3.4,-0.135 -0.255,-6.458 c 0,0 1.948,-0.077 3.808,-0.15 v -3.812 h 6.465 v -3.403 h -6.465 v -7.143 h 5.98 c 1.019,-1.104 4.058,-4.392 4.058,-4.392 l 5.246,4.848 -4.386,4.748 2.499,2.309 4.386,-4.747 c 0,0 1.433,1.323 2.8,2.587 1.317,-1.317 2.696,-2.695 2.696,-2.695 l 4.571,4.57 2.406,-2.405 -4.572,-4.572 5.052,-5.051 c 0,0 3.166,3.166 4.228,4.228 1.501,-0.06 5.975,-0.235 5.975,-0.235 l 0.281,7.138 -6.459,0.255 0.134,3.4 6.459,-0.256 c 0,0 0.077,1.949 0.151,3.809 h 3.811 v 6.464 h 3.403 v -6.464 h 7.143 v 5.98 c 1.103,1.019 4.392,4.057 4.392,4.057 l -4.849,5.247 z"
             style="fill:#231f20;fill-opacity:1;fill-rule:nonzero;stroke:none"
             id="path78" />
        </g>
        <g
           id="g80"
           transform="translate(68.0396,294.5039)">
          <path
             d="m 0,0 h -1.167 v -10.307 c 1.039,4.534 2.304,10.046 2.304,10.046 0,0 -0.423,0.097 -1.137,0.261 m -28.253,-7.787 c 0,0 -0.367,-0.231 -0.988,-0.619 -0.518,-0.519 -0.825,-0.826 -0.825,-0.826 0,0 3.999,-3.998 7.288,-7.288 -2.47,3.942 -5.475,8.733 -5.475,8.733 M -43.712,-33.89 c 0,0 -0.097,-0.423 -0.261,-1.137 v -1.167 h 10.307 c -4.533,1.04 -10.046,2.304 -10.046,2.304 m 7.526,-29.389 c 0,0 0.231,-0.368 0.62,-0.989 0.519,-0.518 0.825,-0.826 0.825,-0.826 0,0 4,4 7.289,7.289 -3.942,-2.47 -8.734,-5.474 -8.734,-5.474 M -8.945,-79 h 1.167 v 10.308 c -1.04,-4.535 -2.305,-10.046 -2.305,-10.046 0,0 0.423,-0.098 1.138,-0.262 m 28.252,7.787 c 0,0 0.367,0.231 0.988,0.619 0.518,0.52 0.826,0.826 0.826,0.826 0,0 -3.999,3.999 -7.288,7.288 2.47,-3.941 5.474,-8.733 5.474,-8.733 m 15.459,26.104 c 0,0 0.097,0.422 0.261,1.136 v 1.168 H 24.72 c 4.534,-1.04 10.046,-2.304 10.046,-2.304 M 0.68,-40.082 c -0.147,-0.641 -0.307,-1.335 -0.462,-2.014 -0.492,-0.491 -0.996,-0.996 -1.46,-1.459 -0.556,-0.349 -1.16,-0.727 -1.749,-1.097 h -2.065 c -0.639,0.147 -1.334,0.306 -2.013,0.463 -0.491,0.491 -0.995,0.996 -1.459,1.458 -0.349,0.557 -0.727,1.161 -1.097,1.75 v 2.065 c 0.147,0.639 0.307,1.334 0.462,2.013 0.492,0.491 0.996,0.995 1.459,1.46 0.556,0.347 1.16,0.726 1.75,1.095 h 2.064 c 0.64,-0.146 1.335,-0.306 2.014,-0.461 0.491,-0.492 0.995,-0.996 1.459,-1.46 0.349,-0.555 0.727,-1.16 1.097,-1.749 z m 31.121,17.086 -13.824,-8.666 c 0,0 -3.122,4.979 -4.2,6.699 -1.436,1.437 -5.591,5.592 -5.591,5.592 l 11.538,11.537 c 0,0 -1.934,1.934 -4.296,4.295 -3.256,0.747 -5.922,1.359 -5.922,1.359 L 5.859,-18.083 c 0,0 -5.728,1.313 -7.707,1.768 H -9.754 V 0 h -6.075 c -2.831,-1.773 -5.148,-3.227 -5.148,-3.227 l 8.666,-13.824 c 0,0 -4.979,-3.121 -6.699,-4.199 -1.436,-1.436 -5.591,-5.59 -5.591,-5.59 l -11.537,11.536 c 0,0 -1.934,-1.934 -4.295,-4.295 h -10e-4 c -0.746,-3.256 -1.358,-5.922 -1.358,-5.922 l 15.903,-3.647 c 0,0 -1.314,-5.728 -1.768,-7.707 v -7.906 h -16.316 v -6.075 c 1.774,-2.83 3.227,-5.148 3.227,-5.148 l 13.824,8.666 c 0,0 3.121,-4.978 4.199,-6.699 1.436,-1.436 5.591,-5.591 5.591,-5.591 l -11.537,-11.537 c 0,0 1.934,-1.934 4.295,-4.296 3.256,-0.746 5.922,-1.357 5.922,-1.357 l 3.648,15.902 c 0,0 5.727,-1.314 7.706,-1.768 H 0.809 V -79 h 6.075 c 2.83,1.774 5.148,3.227 5.148,3.227 l -8.666,13.825 c 0,0 4.978,3.12 6.698,4.199 1.436,1.435 5.592,5.591 5.592,5.591 l 11.536,-11.537 c 0,0 1.934,1.933 4.296,4.295 v 0 c 0.747,3.255 1.359,5.921 1.359,5.921 l -15.903,3.649 c 0,0 1.313,5.726 1.767,7.705 v 7.906 h 16.316 v 6.076 c -1.774,2.831 -3.226,5.147 -3.226,5.147 m -4.561,7.275 c 0,0 -0.23,0.367 -0.619,0.99 -0.519,0.518 -0.826,0.825 -0.826,0.825 0,0 -3.999,-3.999 -7.288,-7.288 3.941,2.469 8.733,5.473 8.733,5.473"
             style="fill:#231f20;fill-opacity:1;fill-rule:nonzero;stroke:none"
             id="path82" />
        </g>
        <g
           id="g84"
           transform="translate(205.8486,271.0059)">
          <path
             d="m 0,0 c 1.239,-1.239 2.154,-2.154 2.154,-2.154 l 9.692,9.692 c 0,0 -0.42,0.421 -1.076,1.077 C 10.273,9.399 9.956,9.901 9.956,9.901 L -1.628,2.574 C -1.628,2.574 -0.937,1.48 0,0 m -21.662,-10.275 c 0.69,-0.155 1.454,-0.327 2.239,-0.502 l 0.802,7.213 -0.801,-7.214 h 2.296 c 0.378,-0.598 0.796,-1.261 1.227,-1.941 l 10.77,8.615 c -1.128,1.782 -2.017,3.188 -2.017,3.188 0,0 -3.749,-2.372 -6.981,-4.417 v 8.261 h -3.772 c -2.057,0.464 -3.68,0.828 -3.68,0.828 0,0 -0.974,-4.328 -1.813,-8.059 -2.705,2.704 -5.842,5.842 -5.842,5.842 0,0 -1.176,-1.177 -2.667,-2.668 l 8.615,-10.768 c 0.57,0.569 1.124,1.122 1.624,1.622 m 4.489,19.732 h 3.046 v 13.707 h -1.523 c -0.906,0.203 -1.485,0.334 -1.485,0.334 l -3.01,-13.372 c 0,0 1.262,-0.284 2.972,-0.669 M -36.004,4.001 v 10e-4 c 1.238,1.238 2.153,2.152 2.153,2.152 l -9.692,9.694 c 0,0 -0.42,-0.42 -1.077,-1.077 -0.784,-0.497 -1.286,-0.814 -1.286,-0.814 l 7.327,-11.584 c 0,0 1.094,0.691 2.575,1.628 m 10.778,-17.126 c 0.598,0.379 1.26,0.797 1.94,1.227 l -8.615,10.769 c -1.782,-1.127 -3.187,-2.016 -3.187,-2.016 0,0 2.372,-3.75 4.417,-6.982 h -8.262 v -3.771 l 13.707,-1.523 z m -0.504,-4.536 c 0.155,0.69 0.327,1.456 0.504,2.239 l -13.707,1.524 c -0.463,-2.056 -0.828,-3.679 -0.828,-3.679 0,0 4.328,-0.974 8.06,-1.814 -2.705,-2.705 -5.842,-5.841 -5.842,-5.841 0,0 1.176,-1.176 2.667,-2.668 l 10.769,8.616 c -0.569,0.569 -1.123,1.123 -1.623,1.623 m -26.122,-21.88 c 0,0 0.42,-0.42 1.077,-1.076 l 10.769,8.615 c -1.239,1.238 -2.154,2.153 -2.154,2.153 z m 6.39,26.369 v 0 3.045 h -13.706 v -1.521 c -0.204,-0.907 -0.335,-1.486 -0.335,-1.486 l 13.372,-3.009 c 0,0 0.284,1.26 0.669,2.971 m -5.313,-27.446 c 0.496,-0.784 0.814,-1.287 0.814,-1.287 l 11.584,7.329 c 0,0 -0.692,1.093 -1.629,2.574 z m 24.897,-14.549 h 1.522 l 1.523,13.707 h -3.045 z m 7.534,33.438 c -0.69,0.156 -1.454,0.329 -2.239,0.504 l -0.838,-7.539 0.838,7.539 h -2.296 c -0.378,0.598 -0.797,1.26 -1.227,1.94 l -10.77,-8.615 c 1.127,-1.782 2.016,-3.187 2.016,-3.187 0,0 3.749,2.372 6.982,4.417 v -8.262 h 3.771 c 2.057,-0.463 3.68,-0.828 3.68,-0.828 0,0 0.974,4.328 1.813,8.061 2.705,-2.705 5.843,-5.842 5.843,-5.842 0,0 1.175,1.176 2.666,2.666 l -8.615,10.77 c -0.569,-0.569 -1.124,-1.124 -1.624,-1.624 m -6.012,-33.439 c 0.906,-0.203 1.485,-0.334 1.485,-0.334 l 3.01,13.373 c 0,0 -1.261,0.283 -2.972,0.669 z m 18.201,17.01 9.692,-9.693 c 0,0 0.42,0.42 1.077,1.078 l -8.615,10.769 c -1.239,-1.238 -2.154,-2.154 -2.154,-2.154 m -3.179,16.281 h 8.261 v 3.772 l -13.707,1.523 v -2.296 c -0.597,-0.378 -1.26,-0.797 -1.94,-1.227 l 8.615,-10.77 c 1.782,1.127 3.187,2.016 3.187,2.016 0,0 -2.371,3.75 -4.416,6.982 m 5.332,-14.127 8.616,-10.769 c 0.784,0.495 1.286,0.813 1.286,0.813 l -7.327,11.584 c 0,0 -1.094,-0.692 -2.575,-1.628 m -10.274,21.662 c -0.155,-0.69 -0.327,-1.455 -0.504,-2.24 l 13.707,-1.523 c 0.463,2.056 0.828,3.679 0.828,3.679 0,0 -4.328,0.975 -8.06,1.814 2.705,2.704 5.842,5.841 5.842,5.841 0,0 -1.176,1.176 -2.666,2.667 l -10.77,-8.615 c 0.569,-0.569 1.123,-1.123 1.623,-1.623 m 20.4,-1.517 c 0,0 -0.283,-1.262 -0.668,-2.971 v -3.047 h 13.707 v 1.523 c 0.204,0.905 0.334,1.485 0.334,1.485 z"
             style="fill:#231f20;fill-opacity:1;fill-rule:nonzero;stroke:none"
             id="path86" />
        </g>
        <g
           id="g88"
           transform="translate(318.8613,249.9258)">
          <path
             d="m 0,0 h 9.745 v 5.08 5.078 H 0 c 2.407,2.408 6.89,6.891 6.89,6.891 0,0 -1.764,1.765 -3.591,3.592 -1.826,1.826 -3.591,3.59 -3.591,3.59 0,0 -4.483,-4.483 -6.892,-6.889 v 9.744 h -5.078 v -11.85 h 4.206 c 0.674,-0.674 1.812,-1.811 2.976,-2.974 1.163,-1.164 2.302,-2.303 2.975,-2.976 V 0.872 c -0.673,-0.673 -1.812,-1.811 -2.975,-2.976 -1.164,-1.162 -2.302,-2.3 -2.975,-2.974 h -4.207 -4.208 c -0.674,0.674 -1.811,1.812 -2.974,2.974 -1.164,1.165 -2.302,2.303 -2.975,2.976 v 8.414 c 0.673,0.673 1.812,1.812 2.975,2.976 l -8.38,8.379 c -1.825,-1.828 -3.591,-3.592 -3.591,-3.592 0,0 4.483,-4.483 6.891,-6.891 H -34.27 V 5.08 C -34.269,2.496 -34.269,0 -34.269,0 h 9.745 c -2.409,-2.408 -6.891,-6.891 -6.891,-6.891 0,0 1.766,-1.763 3.592,-3.591 1.826,-1.827 3.592,-3.59 3.592,-3.59 0,0 4.482,4.482 6.889,6.89 v -9.746 h 5.08 5.078 v 9.746 c 2.409,-2.408 6.891,-6.892 6.891,-6.892 0,0 1.766,1.765 3.592,3.592 1.827,1.828 3.591,3.591 3.591,3.591 0,0 -4.483,4.483 -6.89,6.891 m 7.289,-14.472 c -1.827,-1.827 -3.592,-3.59 -3.592,-3.59 l 8.38,-8.381 c 0,0 1.765,1.765 3.592,3.591 1.826,1.828 3.592,3.592 3.592,3.592 l -8.38,8.379 c 0,0 -1.766,-1.764 -3.592,-3.591 m 3.592,35.511 8.38,8.379 c 0,0 -1.766,1.766 -3.592,3.592 l -8.38,-8.38 c 1.826,-1.826 3.592,-3.591 3.592,-3.591 M 15.387,10.158 V 5.08 0 h 11.85 v 5.08 5.078 z m -8.099,14.473 8.381,8.379 c -1.827,1.826 -3.593,3.591 -3.593,3.591 L 3.697,28.222 c 0,0 1.766,-1.765 3.591,-3.591 M -7.184,44.578 h -5.078 v -11.85 h 5.078 z M -16.47,15.236 h 4.208 l -10e-4,11.85 h -5.078 c 0,0 0,-6.34 -10e-4,-9.744 -2.407,2.407 -6.889,6.89 -6.889,6.89 0,0 -1.766,-1.765 -3.592,-3.591 l 8.379,-8.379 c 1.163,1.163 2.301,2.3 2.974,2.974 m 4.207,29.342 h -5.079 v -11.85 h 5.079 z m -24.338,-7.977 c 0,0 -1.766,-1.765 -3.592,-3.591 l 8.38,-8.38 c 1.827,1.827 3.591,3.591 3.591,3.591 z m 4.788,-11.971 -8.38,8.38 c -1.826,-1.827 -3.592,-3.592 -3.592,-3.592 l 8.38,-8.379 c 0,0 1.765,1.765 3.592,3.591 M -39.912,0 v 5.08 5.078 h -11.85 V 5.08 c 0,-2.584 0,-5.08 0,-5.08 z m 4.508,-10.881 -8.381,-8.379 c 0,0 1.766,-1.764 3.592,-3.592 l 8.38,8.38 c -1.827,1.827 -3.591,3.591 -3.591,3.591 m 18.062,-11.689 v -11.85 h 5.08 v -0.002 c 2.583,0.002 5.079,0 5.079,0 v 11.852 h -5.079 z m -22.851,-0.282 c 1.827,-1.826 3.592,-3.591 3.592,-3.591 l 8.379,8.381 c 0,0 -1.765,1.765 -3.591,3.59 z"
             style="fill:#231f20;fill-opacity:1;fill-rule:nonzero;stroke:none"
             id="path90" />
        </g>
        <g
           id="g92"
           transform="translate(444.624,244.2344)">
          <path
             d="m 0,0 v 3.242 c 1.314,1.315 2.293,2.293 2.293,2.293 0,0 2.994,-2.993 5.536,-5.535 z m -7.402,-15.231 c -2.542,2.543 -5.536,5.538 -5.536,5.538 0,0 0.979,0.978 2.293,2.293 h 3.243 z m -10.77,20.292 -1.672,1.671 c -0.746,0 -1.551,0 -2.365,10e-4 v 2.365 c -0.527,0.527 -1.098,1.097 -1.672,1.673 l 1.672,1.672 c 0,0.746 0,1.552 0.001,2.366 h 2.364 c 0.529,0.527 1.099,1.097 1.674,1.671 l 1.672,-1.671 c 0.746,0 1.551,0 2.365,-10e-4 v -2.365 c 0.528,-0.527 1.098,-1.097 1.672,-1.673 l -1.672,-1.672 c 0,-0.746 0,-1.552 -0.001,-2.366 h -2.364 c -0.528,-0.527 -1.098,-1.097 -1.674,-1.671 m -10.769,-20.29 V -7.4 h 3.242 c 1.314,-1.315 2.293,-2.293 2.293,-2.293 0,0 -2.993,-2.995 -5.535,-5.536 M -44.172,0.002 c 2.542,2.541 5.536,5.535 5.536,5.535 0,0 0.98,-0.978 2.293,-2.293 V 0.002 Z m 7.83,21.539 v -3.242 c -1.314,-1.315 -2.293,-2.293 -2.293,-2.293 0,0 -2.994,2.993 -5.536,5.535 z m 7.403,15.23 c 2.542,-2.542 5.536,-5.536 5.536,-5.536 0,0 -0.98,-0.979 -2.294,-2.293 h -3.242 z m 21.539,0 v -7.83 h -3.243 c -1.314,1.315 -2.293,2.293 -2.293,2.293 0,0 2.994,2.995 5.536,5.537 M 10e-4,21.539 H 7.83 C 5.288,18.998 2.294,16.004 2.294,16.004 c 0,0 -0.98,0.978 -2.293,2.293 z m 21.328,-6.488 c 0,0 -5.769,5.77 -8.54,8.543 V 35.672 H 6.732 c 10e-4,3.081 10e-4,6.057 10e-4,6.057 H -5.346 c -2.771,2.771 -8.542,8.541 -8.542,8.541 l -4.281,-4.282 v -10e-4 c -2.179,2.179 -4.282,4.283 -4.282,4.283 0,0 -5.771,-5.769 -8.543,-8.54 h -12.078 v -6.056 h -6.057 c 0,0 0,-8.16 -0.001,-12.078 -2.77,-2.772 -8.541,-8.541 -8.541,-8.541 l 4.283,-4.284 c -2.179,-2.177 -4.283,-4.281 -4.283,-4.281 0,0 5.77,-5.77 8.54,-8.543 v -12.078 h 6.057 c -0.001,-3.082 -0.001,-6.056 -0.001,-6.056 0,0 8.16,-10e-4 12.079,-10e-4 2.771,-2.771 8.542,-8.542 8.542,-8.542 0,0 2.103,2.105 4.281,4.283 2.179,-2.179 4.282,-4.283 4.282,-4.283 0,0 5.771,5.769 8.543,8.54 H 6.73 v 6.057 c 3.081,-0.002 6.057,-0.002 6.057,-0.002 0,0 0,8.162 10e-4,12.08 2.771,2.772 8.541,8.541 8.541,8.541 0,0 -2.104,2.105 -4.283,4.284 2.18,2.177 4.283,4.281 4.283,4.281"
             style="fill:#231f20;fill-opacity:1;fill-rule:nonzero;stroke:none"
             id="path94" />
        </g>
        <g
           id="g96"
           transform="translate(558.2607,239.5117)">
          <path
             d="m 0,0 c -0.669,-0.701 -1.284,-1.348 -1.284,-1.348 l -3.089,2.942 c 0,0 0.638,0.67 1.319,1.386 0.7,0.7 1.353,1.354 1.353,1.354 L 1.316,1.316 C 1.316,1.316 0.685,0.686 0,0 m -13.743,6.535 h -2.024 c -1.027,-0.025 -2.022,-0.049 -2.022,-0.049 0,0 -0.047,1.979 -0.096,3.981 -1.416,-1.416 -2.816,-2.816 -2.816,-2.816 0,0 -0.703,0.704 -1.431,1.431 -0.744,0.709 -1.465,1.395 -1.465,1.395 0,0 1.366,1.433 2.747,2.884 h -3.982 v 2.022 c -0.025,1.029 -0.05,2.023 -0.05,2.023 0,0 1.98,0.047 3.982,0.096 -1.416,1.417 -2.817,2.816 -2.817,2.816 0,0 0.704,0.704 1.431,1.431 0.71,0.745 1.394,1.465 1.394,1.465 0,0 1.435,-1.365 2.885,-2.747 v 3.982 h 2.023 c 1.028,0.026 2.022,0.05 2.022,0.05 0,0 0.048,-1.979 0.097,-3.981 1.416,1.416 2.816,2.816 2.816,2.816 0,0 0.702,-0.703 1.43,-1.43 0.745,-0.71 1.466,-1.396 1.466,-1.396 0,0 -1.366,-1.434 -2.747,-2.883 h 3.982 v -2.023 c 0.025,-1.028 0.05,-2.022 0.05,-2.022 0,0 -1.98,-0.049 -3.982,-0.098 1.416,-1.416 2.816,-2.816 2.816,-2.816 0,0 -0.703,-0.703 -1.43,-1.43 -0.71,-0.744 -1.395,-1.465 -1.395,-1.465 0,0 -1.434,1.366 -2.884,2.747 z m 0,-13.222 h -1.861 c -0.969,-0.024 -1.862,-0.045 -1.862,-0.045 l -0.104,4.263 c 0,0 0.924,0.024 1.914,0.048 h 1.913 z m -16.308,4.989 c 0,0 -0.632,0.631 -1.316,1.315 -0.702,0.669 -1.349,1.285 -1.349,1.285 l 2.943,3.088 c 0,0 0.669,-0.636 1.385,-1.319 0.7,-0.698 1.353,-1.353 1.353,-1.353 z m -8.05,18.782 4.265,0.103 c 0,0 0.023,-0.924 0.047,-1.913 v -1.913 h -4.266 v 1.861 c -0.023,0.968 -0.046,1.862 -0.046,1.862 m 6.351,13.9 c 0.668,0.702 1.284,1.349 1.284,1.349 l 3.089,-2.942 c 0,0 -0.638,-0.67 -1.319,-1.386 -0.7,-0.698 -1.353,-1.353 -1.353,-1.353 l -3.017,3.016 c 0,0 0.631,0.631 1.316,1.316 m 13.743,6.688 h 1.861 c 0.969,0.023 1.861,0.046 1.861,0.046 l 0.105,-4.265 c 0,0 -0.925,-0.023 -1.914,-0.047 h -1.913 z m 16.308,-4.988 c 0,0 0.631,-0.631 1.316,-1.317 0.701,-0.668 1.349,-1.283 1.349,-1.283 l -2.943,-3.09 c 0,0 -0.669,0.639 -1.386,1.321 -0.699,0.698 -1.352,1.353 -1.352,1.353 z M 6.35,13.902 2.085,13.799 c 0,0 -0.022,0.924 -0.046,1.912 v 1.914 H 6.305 V 15.764 C 6.328,14.795 6.35,13.902 6.35,13.902 m 9.228,-10.99 h -10e-4 c -0.03,1.275 -0.054,2.254 -0.054,2.254 l 8.102,0.197 -0.219,8.955 -8.101,-0.198 c 0,0 -0.021,0.827 -0.044,1.753 v 1.752 h 8.105 v 8.957 h -8.105 v 2.255 c -0.924,0.88 -1.632,1.555 -1.632,1.555 l 5.59,5.869 -6.487,6.177 -5.589,-5.869 c 0,0 -0.599,0.57 -1.27,1.209 -0.654,0.654 -1.239,1.24 -1.239,1.24 l 5.731,5.73 -6.334,6.334 -5.731,-5.73 c 0,0 -0.692,0.691 -1.594,1.593 -1.275,-0.031 -2.255,-0.054 -2.255,-0.054 l -0.197,8.101 -8.954,-0.218 0.198,-8.102 c 0,0 -0.827,-0.021 -1.753,-0.043 h -1.752 v 8.105 h -8.958 v -8.105 h -2.255 c -0.88,-0.924 -1.554,-1.633 -1.554,-1.633 l -5.869,5.59 -6.178,-6.486 5.869,-5.59 c 0,0 -0.57,-0.6 -1.208,-1.27 -0.655,-0.654 -1.24,-1.238 -1.24,-1.238 l -5.731,5.73 -6.334,-6.334 5.732,-5.73 c 0,0 -0.692,-0.691 -1.595,-1.594 0.031,-1.276 0.055,-2.254 0.055,-2.254 l -8.102,-0.198 0.219,-8.955 8.101,0.198 c 0,0 0.021,-0.827 0.043,-1.752 v -1.752 h -8.105 V 4.402 h 8.105 V 2.148 c 0.924,-0.879 1.633,-1.554 1.633,-1.554 l -5.59,-5.869 6.487,-6.178 5.589,5.869 c 0,0 0.599,-0.57 1.27,-1.209 0.653,-0.654 1.239,-1.238 1.239,-1.238 l -5.732,-5.732 6.335,-6.334 5.731,5.731 c 0,0 0.692,-0.692 1.594,-1.595 v 10e-4 c 1.275,0.031 2.254,0.056 2.254,0.056 l 0.198,-8.104 8.954,0.219 -0.198,8.103 c 0,0 0.827,0.019 1.753,0.043 h 1.752 v -8.106 h 8.958 v 8.106 h 2.254 c 0.881,0.923 1.554,1.632 1.554,1.632 l 5.87,-5.59 6.177,6.487 -5.869,5.589 c 0,0 0.57,0.599 1.209,1.269 0.655,0.654 1.239,1.239 1.239,1.239 l 5.731,-5.73 6.335,6.333 -5.732,5.731 c 0,0 0.692,0.692 1.595,1.595"
             style="fill:#231f20;fill-opacity:1;fill-rule:nonzero;stroke:none"
             id="path98" />
        </g>
        <g
           id="g100"
           transform="translate(91.3589,116.5234)">
          <path
             d="m 0,0 v -7.086 c -0.578,-3.029 -1.327,-6.961 -1.327,-6.961 l 11.501,-2.192 c 0,0 0.948,4.977 1.534,8.047 V 0 Z M -6.283,13.335 C -4.549,10.785 -2.3,7.476 -2.3,7.476 l 9.683,6.581 c 0,0 -2.848,4.191 -4.605,6.776 -2.211,2.209 -5.793,5.792 -5.793,5.792 l -8.279,-8.279 c 0,0 2.829,-2.829 5.011,-5.011 m -11.923,8.671 2.193,11.5 c 0,0 -4.977,0.949 -8.047,1.534 h -8.192 V 23.332 h 7.086 c 3.03,-0.577 6.96,-1.326 6.96,-1.326 M -45.587,17.05 c 2.55,1.733 5.86,3.982 5.86,3.982 l -6.581,9.684 c 0,0 -4.191,-2.849 -6.776,-4.607 -2.21,-2.209 -5.793,-5.792 -5.793,-5.792 l 8.279,-8.279 c 0,0 2.83,2.83 5.011,5.012 m -9.997,-18.884 c 0.578,3.03 1.327,6.961 1.327,6.961 l -11.5,2.192 c 0,0 -0.95,-4.977 -1.535,-8.047 V -8.92 h 11.708 z m 6.283,-20.421 c -1.734,2.551 -3.983,5.86 -3.983,5.86 l -9.683,-6.582 c 0,0 2.848,-4.191 4.605,-6.775 2.211,-2.21 5.793,-5.793 5.793,-5.793 l 8.279,8.279 c 0,0 -2.829,2.829 -5.011,5.011 m 11.923,-8.67 -2.193,-11.501 c 0,0 4.977,-0.949 8.047,-1.534 h 8.192 v 11.708 h -7.086 c -3.03,0.578 -6.96,1.327 -6.96,1.327 m 27.381,4.956 c -2.55,-1.733 -5.86,-3.983 -5.86,-3.983 l 6.582,-9.684 c 0,0 4.19,2.849 6.775,4.607 2.21,2.21 5.792,5.793 5.792,5.793 l -8.278,8.278 c 0,0 -2.829,-2.829 -5.011,-5.011 m -7.286,20.516 c -0.296,-1.549 -0.595,-3.115 -0.792,-4.151 -0.745,-0.747 -1.873,-1.874 -2.989,-2.99 -1.303,-0.885 -2.623,-1.782 -3.495,-2.376 h -4.226 c -1.549,0.296 -3.115,0.595 -4.152,0.793 -0.745,0.745 -1.873,1.872 -2.988,2.989 -0.886,1.303 -1.783,2.624 -2.376,3.495 v 4.226 c 0.296,1.549 0.594,3.115 0.792,4.151 0.746,0.747 1.873,1.875 2.988,2.99 1.304,0.886 2.623,1.782 3.496,2.376 h 4.226 c 1.548,-0.296 3.115,-0.595 4.151,-0.793 0.746,-0.745 1.874,-1.872 2.989,-2.988 0.886,-1.304 1.783,-2.624 2.376,-3.496 z m 8.355,-11.563 c 0,0 -3.061,3.06 -5.46,5.46 3.333,-0.636 7.585,-1.447 7.585,-1.447 0,0 0.668,3.503 1.228,6.444 V 0 h -7.721 c 2.806,1.908 6.386,4.342 6.386,4.342 0,0 -2.005,2.947 -3.688,5.424 -2.117,2.117 -4.638,4.638 -4.638,4.638 0,0 -3.061,-3.061 -5.46,-5.46 l -1.003,-1.896 1.003,1.896 c 0.636,3.333 1.446,7.585 1.446,7.585 0,0 -3.502,0.667 -6.443,1.229 h -6.559 v -7.722 c -1.908,2.807 -4.341,6.386 -4.341,6.386 0,0 -2.949,-2.004 -5.425,-3.688 -2.116,-2.117 -4.638,-4.637 -4.638,-4.637 0,0 3.061,-3.061 5.46,-5.46 -3.333,0.635 -7.585,1.446 -7.585,1.446 0,0 -0.667,-3.503 -1.228,-6.444 V -8.92 h 7.721 c -2.806,-1.907 -6.386,-4.342 -6.386,-4.342 0,0 2.005,-2.947 3.688,-5.423 2.117,-2.118 4.638,-4.638 4.638,-4.638 0,0 3.061,3.06 5.46,5.46 l 1.004,1.895 -1.004,-1.896 c -0.636,-3.333 -1.446,-7.584 -1.446,-7.584 0,0 3.502,-0.668 6.443,-1.23 h 6.559 v 7.722 c 1.908,-2.806 4.341,-6.385 4.341,-6.385 0,0 2.948,2.003 5.425,3.687 2.117,2.117 4.638,4.638 4.638,4.638"
             style="fill:#231f20;fill-opacity:1;fill-rule:nonzero;stroke:none"
             id="path102" />
        </g>
        <g
           id="g104"
           transform="translate(222.9512,110.4502)">
          <path
             d="M 0,0 C -4.357,0.19 -22.111,0.961 -35.623,1.549 -22.111,0.961 -4.356,0.19 0,0 m -27.233,-2.988 h 4.782 v -2.229 c -0.917,-0.77 -1.707,-1.433 -1.707,-1.433 0,0 -1.986,2.365 -3.075,3.662 m 14.425,-21.906 c -4.068,4.438 -15.718,17.148 -24.297,26.507 -0.637,-14.636 -1.536,-35.318 -1.646,-37.846 0.11,2.528 1.009,23.21 1.646,37.846 -8.58,9.36 -20.23,22.07 -24.298,26.507 4.068,-4.437 15.718,-17.147 24.298,-26.507 0.636,14.638 1.535,35.319 1.645,37.847 -0.11,-2.528 -1.009,-23.21 -1.645,-37.847 8.579,-9.359 20.229,-22.069 24.297,-26.507 m -18.765,11.315 c -1.193,0.103 -2.221,0.193 -2.221,0.193 0,0 0.269,3.077 0.416,4.765 1.198,-1.198 3.381,-3.382 3.381,-3.382 0,0 -0.729,-0.729 -1.576,-1.576 m -10.134,0.537 h -2.229 c -0.77,0.917 -1.433,1.708 -1.433,1.708 0,0 2.365,1.985 3.662,3.075 z m -10.59,9.122 c 0.103,1.193 0.193,2.222 0.193,2.222 0,0 3.077,-0.269 4.764,-0.415 -1.198,-1.198 -3.382,-3.382 -3.382,-3.382 0,0 -0.729,0.729 -1.575,1.575 m 0.537,10.135 v 2.228 c 0.917,0.771 1.707,1.434 1.707,1.434 0,0 1.986,-2.365 3.075,-3.662 z M -74.211,3.227 C -69.854,3.036 -52.1,2.266 -38.588,1.678 -52.1,2.266 -69.854,3.036 -74.211,3.227 m 31.573,13.579 c 1.193,-0.104 2.22,-0.194 2.22,-0.194 0,0 -0.268,-3.077 -0.415,-4.764 -1.198,1.198 -3.381,3.382 -3.381,3.382 0,0 0.729,0.729 1.576,1.576 m 10.134,-0.537 h 2.229 c 0.77,-0.917 1.433,-1.708 1.433,-1.708 0,0 -2.365,-1.986 -3.662,-3.076 z m 10.59,-9.123 c -0.103,-1.193 -0.193,-2.221 -0.193,-2.221 0,0 -3.077,0.268 -4.764,0.415 1.198,1.198 3.382,3.382 3.382,3.382 0,0 0.729,-0.73 1.575,-1.576 M 1.762,8.73 c 0,0 0.337,3.875 0.633,7.269 -2.409,2.408 -5.16,5.158 -5.16,5.158 l -7.876,-7.876 -4.144,4.145 7.876,7.876 c 0,0 -0.881,0.881 -2.083,2.083 -1.093,1.301 -1.893,2.255 -1.893,2.255 l -8.531,-7.163 -3.769,4.489 8.53,7.163 c 0,0 -2.501,2.978 -4.692,5.587 h -7.296 V 28.577 h -5.861 v 11.139 h -2.945 c -1.693,0.147 -2.934,0.256 -2.934,0.256 l -0.967,-11.097 -5.839,0.509 0.967,11.096 c 0,0 -3.875,0.338 -7.269,0.633 -2.408,-2.408 -5.158,-5.159 -5.158,-5.159 l 7.876,-7.876 -4.145,-4.144 -7.876,7.876 c 0,0 -0.881,-0.881 -2.082,-2.082 -1.302,-1.093 -2.256,-1.895 -2.256,-1.895 l 7.163,-8.529 -4.489,-3.77 -7.163,8.53 c 0,0 -2.979,-2.5 -5.587,-4.692 v -7.296 h 11.139 V 6.215 H -75.208 V 3.27 c -0.147,-1.693 -0.255,-2.934 -0.255,-2.934 l 11.096,-0.967 -0.509,-5.84 -11.097,0.967 c 0,0 -0.337,-3.875 -0.632,-7.268 2.408,-2.409 5.159,-5.159 5.159,-5.159 l 7.876,7.876 4.144,-4.144 -7.876,-7.876 c 0,0 0.881,-0.881 2.083,-2.083 1.093,-1.301 1.893,-2.255 1.893,-2.255 l 8.531,7.163 3.769,-4.489 -8.53,-7.163 c 0,0 2.501,-2.979 4.692,-5.587 h 7.296 v 11.138 h 5.861 v -11.138 h 2.945 c 1.693,-0.148 2.934,-0.256 2.934,-0.256 l 0.967,11.097 5.839,-0.509 -0.967,-11.097 c 0,0 3.875,-0.338 7.269,-0.633 2.408,2.409 5.158,5.16 5.158,5.16 l -7.875,7.875 4.144,4.145 7.876,-7.876 c 0,0 0.881,0.881 2.082,2.082 1.302,1.093 2.256,1.895 2.256,1.895 l -7.163,8.529 4.489,3.769 7.163,-8.53 c 0,0 2.979,2.501 5.587,4.693 v 7.295 h -11.139 v 5.862 H 0.997 v 2.945 c 0.147,1.692 0.255,2.934 0.255,2.934 l -11.096,0.966 0.509,5.84 z"
             style="fill:#231f20;fill-opacity:1;fill-rule:nonzero;stroke:none"
             id="path106" />
        </g>
        <g
           id="g108"
           transform="translate(320.0869,90.5488)">
          <path
             d="M 0,0 V 4.497 H 0.126 C 0.145,4.575 0.154,4.62 0.154,4.62 L 4.54,3.633 C 4.54,3.633 4.006,1.256 3.724,0 Z m -9.441,13.939 h -4.889 c -2.264,0.509 -4.769,1.073 -4.769,1.073 0,0 0.243,1.077 0.553,2.457 h -2.518 v 4.888 c 0.509,2.263 1.073,4.769 1.073,4.769 0,0 1.077,-0.242 2.457,-0.553 v 2.518 h 4.888 c 2.263,-0.509 4.769,-1.072 4.769,-1.072 0,0 -0.242,-1.078 -0.553,-2.457 h 2.518 v -4.889 c -0.509,-2.264 -1.072,-4.769 -1.072,-4.769 0,0 -1.077,0.242 -2.457,0.553 z M -9.441,0 h -6.438 c -2.469,0.557 -6.28,1.413 -6.28,1.413 l 0.987,4.387 c 0,0 3.342,-0.752 5.793,-1.303 h 5.938 z M -31.37,3.486 c 0,0 -2.377,0.535 -3.632,0.818 v 3.723 h 4.497 V 7.9 c 0.078,-0.017 0.123,-0.027 0.123,-0.027 z m 0.865,13.983 h -4.497 v 6.436 c 0.556,2.469 1.413,6.281 1.413,6.281 l 4.386,-0.988 c 0,0 -0.752,-3.341 -1.302,-5.793 z m 3.529,25.56 v -4.496 h -0.127 C -27.12,38.454 -27.13,38.41 -27.13,38.41 l -4.386,0.987 c 0,0 0.535,2.377 0.817,3.632 z m 9.442,0 h 6.436 c 2.469,-0.555 6.281,-1.413 6.281,-1.413 L -5.805,37.23 c 0,0 -3.341,0.752 -5.793,1.303 h -5.936 z M 3.53,19.624 v 5.938 H 8.026 V 19.124 C 7.471,16.655 6.613,12.844 6.613,12.844 l -4.386,0.987 c 0,0 0.752,3.342 1.303,5.793 m 0.865,19.919 c 0,0 2.377,-0.534 3.631,-0.816 V 35.003 H 3.53 v 0.126 C 3.451,35.148 3.407,35.157 3.407,35.157 Z M 26.012,39.5 v 9.441 h -5.215 c 0.526,2.34 1.145,5.089 1.145,5.089 l -9.213,2.073 -1.875,-8.334 -4.387,0.987 1.876,8.335 -9.212,2.072 -1.876,-8.335 c 0,0 -5.072,1.142 -7.304,1.644 h -7.485 v 8.543 h -9.442 v -8.543 h -4.497 v 8.543 h -9.441 V 55.8 l -5.089,1.144 -2.073,-9.212 8.334,-1.875 -0.986,-4.387 -8.335,1.876 -2.073,-9.212 8.335,-1.876 c 0,0 -1.141,-5.072 -1.644,-7.304 v -7.485 h -8.543 V 8.027 h 8.543 V 3.529 h -8.543 v -9.441 h 5.216 c -0.526,-2.34 -1.145,-5.089 -1.145,-5.089 l 9.211,-2.072 1.875,8.334 4.388,-0.987 -1.875,-8.335 9.211,-2.073 1.876,8.335 c 0,0 5.072,-1.14 7.303,-1.643 h 7.487 v -8.543 H 0 v 8.543 h 4.497 v -8.543 h 9.442 v 5.215 c 2.339,-0.527 5.088,-1.145 5.088,-1.145 l 2.073,9.212 -8.334,1.875 0.987,4.388 8.335,-1.875 2.072,9.211 -8.335,1.875 c 0,0 1.142,5.074 1.644,7.304 v 7.487 h 8.543 v 9.441 H 17.469 V 39.5 Z"
             style="fill:#231f20;fill-opacity:1;fill-rule:nonzero;stroke:none"
             id="path110" />
        </g>
        <g
           id="g112"
           transform="translate(450.2695,109.3447)">
          <path
             d="M 0,0 H -3.971 V 2.719 5.437 L 0,5.437 V 2.719 Z m -12.306,0 h -7.542 v -1.25 h -1.25 v -7.542 h -2.718 -2.719 v 7.542 h -1.25 V 0 h -7.542 v 2.719 2.718 h 7.542 v 1.25 h 1.25 v 7.543 h 2.719 2.718 V 6.687 h 1.25 v -1.25 h 7.542 V 2.719 Z m 0,-8.792 h -0.456 v 0.456 h 0.456 z m -8.792,-12.306 h -2.718 -2.719 v 3.971 h 2.719 2.718 z m -13.773,12.306 h -0.456 v 0.456 h 0.456 z M -43.662,0 h -3.971 v 2.719 2.718 h 3.971 V 2.719 Z m 8.335,14.23 h 0.456 v -0.456 h -0.456 z m 8.792,12.305 h 2.719 2.718 v -3.971 h -2.718 -2.719 z M -12.762,14.23 h 0.456 v -0.456 h -0.456 z M 8.335,5.437 h 7.542 v 8.336 H 8.335 v 7.543 H 0 v -7.543 h -3.971 v 7.543 H -5.22 v 1.248 h -7.542 v 3.971 h 7.542 v 8.335 h -7.542 v 7.542 h -8.336 V 34.87 h -2.718 -2.719 v 7.542 h -8.336 V 34.87 h -7.542 v -8.335 h 7.542 v -3.971 h -7.542 v -1.248 h -1.249 v -7.543 h -3.971 v 7.543 h -8.335 V 13.773 H -63.51 V 5.437 h 7.542 V 2.719 0 h -7.542 v -8.336 h 7.542 v -7.542 h 8.335 v 7.542 h 3.971 v -7.542 h 1.249 v -1.249 h 7.542 v -3.971 h -7.542 v -8.335 h 7.542 v -7.542 h 8.336 v 7.542 h 2.719 2.718 v -7.542 h 8.336 v 7.542 h 7.542 v 8.335 h -7.542 v 3.971 h 7.542 v 1.249 h 1.249 v 7.542 H 0 v -7.542 h 8.335 v 7.542 h 7.542 V 0 H 8.335 v 2.719 z"
             style="fill:#231f20;fill-opacity:1;fill-rule:nonzero;stroke:none"
             id="path114" />
        </g>
        <path
           d="m 543.659,110.788 h -2.549 v 2.549 h 2.549 z m 21.237,-6.858 h -4.248 v 4.247 h 4.248 z m 0,-14.377 h -5.458 v 4.248 h 1.21 v 1.21 h 4.248 z M 551.73,103.93 h -1.211 v -1.211 h -4.247 v 5.458 h 5.458 z m -1.211,-14.377 h -4.247 v 4.248 h 4.247 z m -12.02,13.166 h -4.247 v 1.211 h -1.211 v 4.247 h 5.458 z m 0,-13.166 h -4.247 v 4.248 h 4.247 z m -13.166,0 h -5.458 v 5.458 h 4.248 v -1.21 h 1.21 z m -1.21,14.377 h -4.248 v 4.247 h 4.248 z m -4.248,16.267 h 4.248 v -4.247 h -4.248 z m 0,14.377 h 5.458 v -4.248 h -1.21 v -1.211 h -4.248 z m 13.166,-14.377 h 1.211 v 1.211 h 4.247 v -5.458 h -5.458 z m 1.211,14.377 h 4.247 v -4.248 h -4.247 z m 12.02,-13.166 h 4.247 v -1.211 h 1.211 v -4.247 h -5.458 z m 0,13.166 h 4.247 v -4.248 h -4.247 z m 18.624,-18.624 h -4.248 v 4.247 h 4.248 z m -5.459,18.624 h 5.459 v -5.459 h -4.248 v 1.211 h -1.211 z m 22.449,-14.377 v 8.918 h -8.071 v 8.071 h -6.306 v 6.307 h -8.072 v 8.07 h -8.918 v -8.07 h -4.247 v 8.07 h -3.886 -3.887 v -8.07 h -4.247 v 8.07 h -8.919 v -8.07 h -8.07 v -6.307 h -6.307 v -8.071 h -8.07 v -8.918 h 8.07 v -4.247 h -8.07 v -3.886 -3.887 h 8.07 v -4.247 h -8.07 v -8.919 h 8.07 V 86.94 h 6.307 v -6.306 h 8.07 v -8.07 h 8.919 v 8.07 h 4.247 v -8.07 h 3.887 3.886 v 8.07 h 4.247 v -8.07 h 8.919 v 8.07 h 8.071 v 6.306 h 6.306 v 8.071 h 8.071 v 8.919 h -8.071 v 4.247 h 8.071 v 3.887 3.886 h -8.071 v 4.247 z"
           style="fill:#231f20;fill-opacity:1;fill-rule:nonzero;stroke:none"
           id="path116" />
      </g>
    </g>
  </g>
</svg>
